{"asset":{"version":"2.0","generator":"babylon.js glTF exporter for Autodesk MAYA 2023.2 v20220923.2"},"scene":0,"scenes":[{"nodes":[0]}],"nodes":[{"children":[1],"name":"block_Red_base_low"},{"children":[2,3,4,5,6],"name":"group8"},{"mesh":0,"name":"polySurface42_low"},{"mesh":1,"name":"polySurface75_low"},{"mesh":2,"name":"polySurface39_low"},{"mesh":3,"name":"polySurface309_low","extras":{"currentUVSet":"map1"}},{"mesh":4,"name":"polySurface37_low"}],"meshes":[{"primitives":[{"attributes":{"POSITION":1,"TANGENT":2,"NORMAL":3,"TEXCOORD_0":4},"indices":0,"material":0}],"name":"polySurface42_low"},{"primitives":[{"attributes":{"POSITION":6,"TANGENT":7,"NORMAL":8,"TEXCOORD_0":9},"indices":5,"material":0}],"name":"polySurface75_low"},{"primitives":[{"attributes":{"POSITION":11,"TANGENT":12,"NORMAL":13,"TEXCOORD_0":14},"indices":10,"material":0}],"name":"polySurface39_low"},{"primitives":[{"attributes":{"POSITION":16,"TANGENT":17,"NORMAL":18,"TEXCOORD_0":19},"indices":15,"material":0}],"name":"polySurface309_low"},{"primitives":[{"attributes":{"POSITION":21,"TANGENT":22,"NORMAL":23,"TEXCOORD_0":24},"indices":20,"material":0}],"name":"polySurface37_low"}],"accessors":[{"bufferView":0,"componentType":5123,"count":66,"type":"SCALAR","name":"accessorIndices"},{"bufferView":1,"componentType":5126,"count":28,"max":[0.1897988,0.180560753,0.1896173],"min":[-0.189798772,-0.248662427,-0.1896173],"type":"VEC3","name":"accessorPositions"},{"bufferView":2,"componentType":5126,"count":28,"type":"VEC4","name":"accessorTangents"},{"bufferView":1,"byteOffset":336,"componentType":5126,"count":28,"type":"VEC3","name":"accessorNormals"},{"bufferView":3,"componentType":5126,"count":28,"type":"VEC2","name":"accessorUVs"},{"bufferView":0,"byteOffset":132,"componentType":5123,"count":756,"type":"SCALAR","name":"accessorIndices"},{"bufferView":1,"byteOffset":672,"componentType":5126,"count":226,"max":[0.101130426,0.248662427,0.100744627],"min":[-0.101130389,0.230277836,-0.100408934],"type":"VEC3","name":"accessorPositions"},{"bufferView":2,"byteOffset":448,"componentType":5126,"count":226,"type":"VEC4","name":"accessorTangents"},{"bufferView":1,"byteOffset":3384,"componentType":5126,"count":226,"type":"VEC3","name":"accessorNormals"},{"bufferView":3,"byteOffset":224,"componentType":5126,"count":226,"type":"VEC2","name":"accessorUVs"},{"bufferView":0,"byteOffset":1644,"componentType":5123,"count":144,"type":"SCALAR","name":"accessorIndices"},{"bufferView":1,"byteOffset":6096,"componentType":5126,"count":56,"max":[0.1767766,0.202515408,0.1769519],"min":[-0.176776126,0.169408754,-0.1766156],"type":"VEC3","name":"accessorPositions"},{"bufferView":2,"byteOffset":4064,"componentType":5126,"count":56,"type":"VEC4","name":"accessorTangents"},{"bufferView":1,"byteOffset":6768,"componentType":5126,"count":56,"type":"VEC3","name":"accessorNormals"},{"bufferView":3,"byteOffset":2032,"componentType":5126,"count":56,"type":"VEC2","name":"accessorUVs"},{"bufferView":0,"byteOffset":1932,"componentType":5123,"count":66,"type":"SCALAR","name":"accessorIndices"},{"bufferView":1,"byteOffset":7440,"componentType":5126,"count":28,"max":[0.153805941,0.232205316,0.153787538],"min":[-0.153805941,0.201982766,-0.153818056],"type":"VEC3","name":"accessorPositions"},{"bufferView":2,"byteOffset":4960,"componentType":5126,"count":28,"type":"VEC4","name":"accessorTangents"},{"bufferView":1,"byteOffset":7776,"componentType":5126,"count":28,"type":"VEC3","name":"accessorNormals"},{"bufferView":3,"byteOffset":2480,"componentType":5126,"count":28,"type":"VEC2","name":"accessorUVs"},{"bufferView":0,"byteOffset":2064,"componentType":5123,"count":432,"type":"SCALAR","name":"accessorIndices"},{"bufferView":1,"byteOffset":8112,"componentType":5126,"count":104,"max":[0.128594071,0.246668428,0.128761292],"min":[-0.128593579,0.230036527,-0.1284256],"type":"VEC3","name":"accessorPositions"},{"bufferView":2,"byteOffset":5408,"componentType":5126,"count":104,"type":"VEC4","name":"accessorTangents"},{"bufferView":1,"byteOffset":9360,"componentType":5126,"count":104,"type":"VEC3","name":"accessorNormals"},{"bufferView":3,"byteOffset":2704,"componentType":5126,"count":104,"type":"VEC2","name":"accessorUVs"}],"bufferViews":[{"buffer":0,"byteLength":2928,"name":"bufferViewScalar"},{"buffer":0,"byteOffset":2928,"byteLength":10608,"byteStride":12,"name":"bufferViewFloatVec3"},{"buffer":0,"byteOffset":13536,"byteLength":7072,"byteStride":16,"name":"bufferViewFloatVec4"},{"buffer":0,"byteOffset":20608,"byteLength":3536,"byteStride":8,"name":"bufferViewFloatVec2"}],"buffers":[{"uri":"block_Red_base.bin","byteLength":24144}],"materials":[{"pbrMetallicRoughness":{"baseColorFactor":[0.5,0.5,0.5,1.0],"metallicFactor":0.0,"roughnessFactor":0.2581639},"name":"Sphere_01"}]}