{"asset":{"version":"2.0","generator":"babylon.js glTF exporter for Autodesk MAYA 2023.2 v20220923.2"},"scene":0,"scenes":[{"nodes":[0]}],"nodes":[{"children":[1],"name":"buff_low"},{"mesh":0,"name":"buff_low (1)"}],"meshes":[{"primitives":[{"attributes":{"POSITION":1,"TANGENT":2,"NORMAL":3,"TEXCOORD_0":4},"indices":0,"material":0}],"name":"buff_low"}],"accessors":[{"bufferView":0,"componentType":5123,"count":174,"type":"SCALAR","name":"accessorIndices"},{"bufferView":1,"componentType":5126,"count":64,"max":[0.329819024,0.0750045255,0.329819173],"min":[-0.329819024,-0.0750045255,-0.329819173],"type":"VEC3","name":"accessorPositions"},{"bufferView":2,"componentType":5126,"count":64,"type":"VEC4","name":"accessorTangents"},{"bufferView":1,"byteOffset":768,"componentType":5126,"count":64,"type":"VEC3","name":"accessorNormals"},{"bufferView":3,"componentType":5126,"count":64,"type":"VEC2","name":"accessorUVs"}],"bufferViews":[{"buffer":0,"byteLength":348,"name":"bufferViewScalar"},{"buffer":0,"byteOffset":348,"byteLength":1536,"byteStride":12,"name":"bufferViewFloatVec3"},{"buffer":0,"byteOffset":1884,"byteLength":1024,"byteStride":16,"name":"bufferViewFloatVec4"},{"buffer":0,"byteOffset":2908,"byteLength":512,"byteStride":8,"name":"bufferViewFloatVec2"}],"buffers":[{"uri":"buff.bin","byteLength":3420}],"materials":[{"pbrMetallicRoughness":{"baseColorFactor":[0.5,0.5,0.5,1.0],"metallicFactor":0.0,"roughnessFactor":0.450053632},"name":"lambert1"}]}