{"asset":{"version":"2.0","generator":"babylon.js glTF exporter for Autodesk MAYA 2023.2 v20220923.2"},"scene":0,"scenes":[{"nodes":[0]}],"nodes":[{"children":[1],"name":"Platforms_low"},{"children":[2],"name":"platforma_1"},{"children":[3,4,5],"name":"Platforma_low"},{"mesh":0,"name":"platforma4_Platforma_low_Platforma_center_polySurface327"},{"mesh":1,"name":"platforma4_Platforma_low_Platforma_left_polySurface320"},{"mesh":2,"name":"platforma4_Platforma_low_Platforma_right_polySurface320"}],"meshes":[{"primitives":[{"attributes":{"POSITION":1,"TANGENT":2,"NORMAL":3,"TEXCOORD_0":4},"indices":0,"material":0}],"name":"platforma4_Platforma_low_Platforma_center_polySurface327"},{"primitives":[{"attributes":{"POSITION":6,"TANGENT":7,"NORMAL":8,"TEXCOORD_0":9},"indices":5,"material":0}],"name":"platforma4_Platforma_low_Platforma_left_polySurface320"},{"primitives":[{"attributes":{"POSITION":11,"TANGENT":12,"NORMAL":13,"TEXCOORD_0":14},"indices":10,"material":0}],"name":"platforma4_Platforma_low_Platforma_right_polySurface320"}],"accessors":[{"bufferView":0,"componentType":5123,"count":840,"type":"SCALAR","name":"accessorIndices"},{"bufferView":1,"componentType":5126,"count":266,"max":[0.0838760659,0.2065686,0.158121377],"min":[-0.08387624,-0.0532960072,-0.009189453],"type":"VEC3","name":"accessorPositions"},{"bufferView":2,"componentType":5126,"count":266,"type":"VEC4","name":"accessorTangents"},{"bufferView":1,"byteOffset":3192,"componentType":5126,"count":266,"type":"VEC3","name":"accessorNormals"},{"bufferView":3,"componentType":5126,"count":266,"type":"VEC2","name":"accessorUVs"},{"bufferView":0,"byteOffset":1680,"componentType":5123,"count":2496,"type":"SCALAR","name":"accessorIndices"},{"bufferView":1,"byteOffset":6384,"componentType":5126,"count":865,"max":[0.169107169,0.281634,0.120730892],"min":[-0.33092308,-0.281634033,-0.15812099],"type":"VEC3","name":"accessorPositions"},{"bufferView":2,"byteOffset":4256,"componentType":5126,"count":865,"type":"VEC4","name":"accessorTangents"},{"bufferView":1,"byteOffset":16764,"componentType":5126,"count":865,"type":"VEC3","name":"accessorNormals"},{"bufferView":3,"byteOffset":2128,"componentType":5126,"count":865,"type":"VEC2","name":"accessorUVs"},{"bufferView":0,"byteOffset":6672,"componentType":5123,"count":2496,"type":"SCALAR","name":"accessorIndices"},{"bufferView":1,"byteOffset":27144,"componentType":5126,"count":865,"max":[0.33092308,0.281634,0.120730892],"min":[-0.169107124,-0.281634033,-0.15812099],"type":"VEC3","name":"accessorPositions"},{"bufferView":2,"byteOffset":18096,"componentType":5126,"count":865,"type":"VEC4","name":"accessorTangents"},{"bufferView":1,"byteOffset":37524,"componentType":5126,"count":865,"type":"VEC3","name":"accessorNormals"},{"bufferView":3,"byteOffset":9048,"componentType":5126,"count":865,"type":"VEC2","name":"accessorUVs"}],"bufferViews":[{"buffer":0,"byteLength":11664,"name":"bufferViewScalar"},{"buffer":0,"byteOffset":11664,"byteLength":47904,"byteStride":12,"name":"bufferViewFloatVec3"},{"buffer":0,"byteOffset":59568,"byteLength":31936,"byteStride":16,"name":"bufferViewFloatVec4"},{"buffer":0,"byteOffset":91504,"byteLength":15968,"byteStride":8,"name":"bufferViewFloatVec2"}],"buffers":[{"uri":"platforma_x1.bin","byteLength":107472}],"materials":[{"pbrMetallicRoughness":{"baseColorFactor":[0.5,0.5,0.5,1.0],"metallicFactor":0.0,"roughnessFactor":0.2581639},"name":"Sphere_01"}]}