{"asset":{"version":"2.0","generator":"babylon.js glTF exporter for Autodesk MAYA 2023.2 v20220923.2"},"scene":0,"scenes":[{"nodes":[0]}],"nodes":[{"children":[1,2,3],"name":"Sphere_low"},{"mesh":0,"name":"Sphere_01_low"},{"mesh":1,"name":"Sphere_02_low"},{"mesh":2,"name":"Sphere_03_low"}],"meshes":[{"primitives":[{"attributes":{"POSITION":1,"TANGENT":2,"NORMAL":3,"TEXCOORD_0":4},"indices":0,"material":0}],"name":"Sphere_01_low"},{"primitives":[{"attributes":{"POSITION":6,"TANGENT":7,"NORMAL":8,"TEXCOORD_0":9},"indices":5,"material":0}],"name":"Sphere_02_low"},{"primitives":[{"attributes":{"POSITION":11,"TANGENT":12,"NORMAL":13,"TEXCOORD_0":14},"indices":10,"material":0}],"name":"Sphere_03_low"}],"accessors":[{"bufferView":0,"componentType":5123,"count":216,"type":"SCALAR","name":"accessorIndices"},{"bufferView":1,"componentType":5126,"count":76,"max":[0.06332779,0.0967425,0.116545863],"min":[-0.0633278042,-0.00113495579,-0.116545863],"type":"VEC3","name":"accessorPositions"},{"bufferView":2,"componentType":5126,"count":76,"type":"VEC4","name":"accessorTangents"},{"bufferView":1,"byteOffset":912,"componentType":5126,"count":76,"type":"VEC3","name":"accessorNormals"},{"bufferView":3,"componentType":5126,"count":76,"type":"VEC2","name":"accessorUVs"},{"bufferView":0,"byteOffset":432,"componentType":5123,"count":324,"type":"SCALAR","name":"accessorIndices"},{"bufferView":1,"byteOffset":1824,"componentType":5126,"count":85,"max":[0.116547927,0.115412042,0.0912017],"min":[-0.116547942,0.0,-0.0912017],"type":"VEC3","name":"accessorPositions"},{"bufferView":2,"byteOffset":1216,"componentType":5126,"count":85,"type":"VEC4","name":"accessorTangents"},{"bufferView":1,"byteOffset":2844,"componentType":5126,"count":85,"type":"VEC3","name":"accessorNormals"},{"bufferView":3,"byteOffset":608,"componentType":5126,"count":85,"type":"VEC2","name":"accessorUVs"},{"bufferView":0,"byteOffset":1080,"componentType":5123,"count":138,"type":"SCALAR","name":"accessorIndices"},{"bufferView":1,"byteOffset":3864,"componentType":5126,"count":52,"max":[0.129083782,0.011388557,0.129083589],"min":[-0.129083782,-0.011388557,-0.129083589],"type":"VEC3","name":"accessorPositions"},{"bufferView":2,"byteOffset":2576,"componentType":5126,"count":52,"type":"VEC4","name":"accessorTangents"},{"bufferView":1,"byteOffset":4488,"componentType":5126,"count":52,"type":"VEC3","name":"accessorNormals"},{"bufferView":3,"byteOffset":1288,"componentType":5126,"count":52,"type":"VEC2","name":"accessorUVs"}],"bufferViews":[{"buffer":0,"byteLength":1356,"name":"bufferViewScalar"},{"buffer":0,"byteOffset":1356,"byteLength":5112,"byteStride":12,"name":"bufferViewFloatVec3"},{"buffer":0,"byteOffset":6468,"byteLength":3408,"byteStride":16,"name":"bufferViewFloatVec4"},{"buffer":0,"byteOffset":9876,"byteLength":1704,"byteStride":8,"name":"bufferViewFloatVec2"}],"buffers":[{"uri":"sphere.bin","byteLength":11580}],"materials":[{"pbrMetallicRoughness":{"baseColorFactor":[0.5,0.5,0.5,1.0],"metallicFactor":0.0,"roughnessFactor":0.2581639},"name":"Sphere_01"}]}